<?xml version="1.0" encoding="UTF-8"?>
<svg id="Layer_2" data-name="Layer 2" xmlns="http://www.w3.org/2000/svg" viewBox="0 0 100 100">
  <defs>
    <style>
      .cls-1 {
        stroke-width: 2px;
      }

      .cls-1, .cls-2 {
        fill: none;
        stroke: #8a1538;
        stroke-miterlimit: 10;
      }
    </style>
  </defs>
  <g>
    <circle class="cls-1" cx="49" cy="46" r="23"/>
    <path class="cls-1" d="M44.29,23.48s7.03,6.72-1.33,12.3c0,0,.46,3.72-.93,3.72s-1.86-1.39-2.79-2.32-5.58-1.86-6.51,0-.46,3.25,3.25,6.51c0,0,.93,2.32,5.58,1.39,0,0,1.86,.93,2.32,1.86,0,0,3.25,0,4.18,2.79,0,0,5.11,2.32,4.65,3.25s-2.32,3.72-2.32,3.72c0,0-1.39,1.39-2.79,2.32l-4.52,9.22"/>
    <path class="cls-1" d="M26.18,43.14s6.92,.48,7.32,2.71l.4,2.7s-2.32,.46-2.32,2.32-.93,6.04,5.11,9.29c0,0,1.39,1.68,0,5.25"/>
    <path class="cls-1" d="M63.42,28.08s1.14,3.74-3.5,3.28c0,0-1.86,.93-1.39,4.18,0,0,2.79,3.72,5.58,0,0,0-.02-2.71,4.64-1.36"/>
    <path class="cls-1" d="M71.31,40.39s-9.07-3.45-9.53,4.45c0,0-2.79,8.83,5.58,7.43,0,0,3.35-1.16,3.53,.81"/>
  </g>
  <rect class="cls-2" x="44.75" y="76.45" width="7.5" height="7.5" transform="translate(70.91 -10.81) rotate(45)"/>
</svg>